<svg width="38" height="38" viewBox="0 0 38 38" fill="none" xmlns="http://www.w3.org/2000/svg">
<path d="M24.6289 18.5L19.3915 13.2626C19.1429 13.0145 19.0031 12.6778 19.0028 12.3266C19.0025 11.9754 19.1417 11.6384 19.3899 11.3899C19.638 11.1413 19.9747 11.0015 20.3259 11.0012C20.6771 11.0009 21.0141 11.1401 21.2626 11.3882L26.5 16.6256L31.7374 11.3882C31.9859 11.1396 32.3231 11 32.6746 11C33.0261 11 33.3632 11.1396 33.6118 11.3882C33.8604 11.6368 34 11.9739 34 12.3254C34 12.6769 33.8604 13.0141 33.6118 13.2626L28.3744 18.5L33.6118 23.7374C33.8604 23.9859 34 24.3231 34 24.6746C34 25.0261 33.8604 25.3632 33.6118 25.6118C33.3632 25.8604 33.0261 26 32.6746 26C32.3231 26 31.9859 25.8604 31.7374 25.6118L26.5 20.3744L21.2626 25.6118C21.0141 25.8604 20.6769 26 20.3254 26C19.9739 26 19.6368 25.8604 19.3882 25.6118C19.1396 25.3632 19 25.0261 19 24.6746C19 24.3231 19.1396 23.9859 19.3882 23.7374L24.6289 18.5Z" fill="black"/>
</svg>
