<svg width="32" height="27" viewBox="0 0 32 27" fill="none" xmlns="http://www.w3.org/2000/svg">
<g clip-path="url(#clip0)">
<path d="M15.9748 8.28094L10.9923 15.0304L15.4791 9.33053L21.2715 16.1914L25.4039 12.777L21.7673 15.1397L15.9748 8.28094Z" fill="#228FBD"/>
<path d="M26.0999 25.7277C25.619 26.1433 25.2245 25.959 25.2245 25.3164V23.3351H3.28649C2.86419 23.3368 2.44706 23.2407 2.06682 23.0541C1.68657 22.8676 1.35322 22.5954 1.09209 22.2584C0.830968 21.9214 0.648945 21.5283 0.559861 21.1092C0.470776 20.69 0.476975 20.2557 0.577985 19.8393L0.554782 19.8715C0.24541 20.291 0.0571536 20.7897 0.0110937 21.3117C-0.0349662 21.8337 0.0629886 22.3585 0.293989 22.8272C0.52499 23.2959 0.879916 23.69 1.31902 23.9655C1.75813 24.2409 2.26408 24.3868 2.78023 24.3868H24.7183V26.366C24.7183 27.0086 25.1127 27.195 25.5958 26.7794L30.7744 22.3176C30.9073 22.209 31.0094 22.0665 31.0702 21.9047C31.131 21.7428 31.1483 21.5675 31.1204 21.3966L26.0999 25.7277Z" fill="#228FBD"/>
<path d="M31.6416 18.7362L26.4587 14.2744C25.9778 13.861 25.5833 14.0452 25.5833 14.6878V16.6691H9.18884L16.0044 7.41353L21.7969 14.268L26.2267 11.2392L18.0716 1.04321C17.805 0.709767 17.4669 0.44251 17.0832 0.261783C16.6994 0.081056 16.2802 -0.00837434 15.8572 0.000301335C15.4343 0.00897701 15.0189 0.11553 14.6427 0.311847C14.2665 0.508164 13.9393 0.789068 13.6861 1.13317L1.40927 17.8001C1.09979 18.2198 0.911517 18.7187 0.865539 19.2409C0.81956 19.7631 0.917698 20.288 1.14895 20.7568C1.38021 21.2255 1.73545 21.6197 2.17486 21.895C2.61428 22.1703 3.12051 22.3159 3.63683 22.3155H25.5749V24.2968C25.5749 24.9394 25.9693 25.1236 26.4503 24.7081L31.6416 20.2463C31.7543 20.1565 31.8454 20.0419 31.9081 19.9111C31.9708 19.7803 32.0034 19.6367 32.0034 19.4912C32.0034 19.3458 31.9708 19.2022 31.9081 19.0714C31.8454 18.9406 31.7543 18.826 31.6416 18.7362Z" fill="url(#paint0_linear)"/>
<path d="M30.5776 19.7999H3.55542L16.1551 2.87988L23.676 12.1726" stroke="white" stroke-width="0.5" stroke-linejoin="round" stroke-dasharray="16.16 22.11"/>
</g>
<defs>
<linearGradient id="paint0_linear" x1="0.854495" y1="12.4644" x2="32.0002" y2="12.4644" gradientUnits="userSpaceOnUse">
<stop stop-color="#999999"/>
<stop offset="1" stop-color="#7C7C7C"/>
</linearGradient>
<clipPath id="clip0">
<rect width="32" height="27" fill="white"/>
</clipPath>
</defs>
</svg>
