<svg width="272" height="59" viewBox="0 0 272 59" fill="none" xmlns="http://www.w3.org/2000/svg">
<g clip-path="url(#clip0)">
<path d="M35.4438 18.0957L24.389 32.8445L34.344 20.3892L47.196 35.3815L56.3647 27.9205L48.2959 33.0833L35.4438 18.0957Z" fill="#228FBD"/>
<path d="M57.9092 56.2202C56.8421 57.1283 55.9669 56.7257 55.9669 55.3215V50.9919H7.2919C6.35492 50.9956 5.42942 50.7857 4.58575 50.378C3.74208 49.9703 3.00245 49.3756 2.42308 48.6392C1.84371 47.9027 1.43985 47.0439 1.24219 46.1279C1.04454 45.2119 1.05829 44.2629 1.2824 43.353L1.23092 43.4232C0.544503 44.34 0.12681 45.4297 0.0246142 46.5704C-0.0775813 47.7112 0.139756 48.8578 0.652289 49.882C1.16482 50.9062 1.95231 51.7675 2.92659 52.3694C3.90086 52.9713 5.02344 53.2901 6.16863 53.2901H54.8436V57.6151C54.8436 59.0193 55.7189 59.4265 56.7906 58.5184L68.2808 48.7686C68.5757 48.5313 68.8022 48.2199 68.9371 47.8662C69.0719 47.5125 69.1103 47.1293 69.0483 46.7559L57.9092 56.2202Z" fill="#228FBD"/>
<path d="M70.2043 40.9421L58.7049 31.1923C57.6378 30.2889 56.7625 30.6914 56.7625 32.0957V36.4253H20.3873L35.5094 16.2001L48.3614 31.1782L58.19 24.5598L40.096 2.27971C39.5044 1.55109 38.7543 0.967077 37.9029 0.572156C37.0515 0.177234 36.1212 -0.0181876 35.1829 0.000770371C34.2445 0.0197283 33.3229 0.252566 32.4881 0.681555C31.6533 1.11054 30.9274 1.72437 30.3657 2.4763L3.12643 38.8967C2.43977 39.8137 2.02203 40.9039 1.92002 42.0451C1.818 43.1862 2.03574 44.3332 2.54884 45.3575C3.06194 46.3819 3.85013 47.2431 4.82508 47.8447C5.80003 48.4462 6.92323 48.7644 8.06882 48.7636H56.7438V53.0932C56.7438 54.4974 57.619 54.8999 58.6861 53.9919L70.2043 44.242C70.4544 44.0458 70.6567 43.7954 70.7957 43.5095C70.9348 43.2237 71.007 42.91 71.007 42.5921C71.007 42.2742 70.9348 41.9605 70.7957 41.6746C70.6567 41.3888 70.4544 41.1383 70.2043 40.9421Z" fill="url(#paint0_linear)"/>
<path d="M67.8444 43.2668H7.88889L35.8444 6.29346L52.5313 26.5998" stroke="white" stroke-width="3" stroke-linejoin="round" stroke-dasharray="16.16 22.11"/>
</g>
<path d="M103.453 28.4961H100.748V25H92.1738V28.4863H89.4004L89.2441 22.6465H90.3184C90.8978 22.1647 91.3438 21.4583 91.6562 20.5273C91.9753 19.5898 92.1901 18.431 92.3008 17.0508L92.7109 10.7812H102.027V22.6465H103.688L103.453 28.4961ZM93.6777 22.6465H99.0977V13.1543H95.4941L95.25 16.8945C95.0547 19.401 94.5306 21.3184 93.6777 22.6465ZM117.576 18.2129C117.576 19.6126 117.328 20.8398 116.834 21.8945C116.339 22.9492 115.629 23.763 114.705 24.3359C113.787 24.9089 112.732 25.1953 111.541 25.1953C110.362 25.1953 109.311 24.9121 108.386 24.3457C107.462 23.7793 106.746 22.972 106.238 21.9238C105.73 20.8691 105.473 19.6582 105.466 18.291V17.5879C105.466 16.1882 105.717 14.9577 106.218 13.8965C106.726 12.8288 107.439 12.0117 108.357 11.4453C109.282 10.8724 110.336 10.5859 111.521 10.5859C112.706 10.5859 113.757 10.8724 114.675 11.4453C115.6 12.0117 116.313 12.8288 116.814 13.8965C117.322 14.9577 117.576 16.1849 117.576 17.5781V18.2129ZM114.607 17.5684C114.607 16.0775 114.34 14.9447 113.806 14.1699C113.272 13.3952 112.511 13.0078 111.521 13.0078C110.538 13.0078 109.78 13.3919 109.246 14.1602C108.712 14.9219 108.442 16.0417 108.435 17.5195V18.2129C108.435 19.6647 108.702 20.791 109.236 21.5918C109.77 22.3926 110.538 22.793 111.541 22.793C112.524 22.793 113.279 22.4089 113.806 21.6406C114.334 20.8659 114.601 19.7396 114.607 18.2617V17.5684ZM123.534 19.9902V25H120.605V10.7812H126.152C127.219 10.7812 128.157 10.9766 128.964 11.3672C129.778 11.7578 130.403 12.3145 130.839 13.0371C131.275 13.7533 131.493 14.5703 131.493 15.4883C131.493 16.8815 131.015 17.9818 130.058 18.7891C129.107 19.5898 127.789 19.9902 126.103 19.9902H123.534ZM123.534 17.6172H126.152C126.926 17.6172 127.515 17.4349 127.919 17.0703C128.329 16.7057 128.534 16.1849 128.534 15.5078C128.534 14.8112 128.329 14.248 127.919 13.8184C127.509 13.3887 126.943 13.1673 126.22 13.1543H123.534V17.6172ZM141.427 14.6973C141.427 14.1569 141.215 13.7337 140.792 13.4277C140.369 13.1152 139.809 12.959 139.112 12.959C138.487 12.959 137.966 13.1152 137.55 13.4277C137.139 13.7337 136.934 14.1341 136.934 14.6289H134.005C134.005 13.8607 134.22 13.1706 134.649 12.5586C135.085 11.9401 135.701 11.4583 136.495 11.1133C137.296 10.7682 138.168 10.5957 139.112 10.5957C140.753 10.5957 142.039 10.9473 142.97 11.6504C143.901 12.3535 144.366 13.3496 144.366 14.6387C144.366 15.2702 144.174 15.8561 143.79 16.3965C143.412 16.9368 142.872 17.3698 142.169 17.6953C142.95 17.9688 143.549 18.3854 143.966 18.9453C144.382 19.4987 144.591 20.1888 144.591 21.0156C144.591 22.2917 144.089 23.3073 143.087 24.0625C142.091 24.8112 140.766 25.1855 139.112 25.1855C138.077 25.1855 137.146 25.0098 136.319 24.6582C135.492 24.3001 134.864 23.8151 134.434 23.2031C134.011 22.5846 133.8 21.8685 133.8 21.0547H136.749C136.749 21.5625 136.97 21.9889 137.413 22.334C137.856 22.6725 138.422 22.8418 139.112 22.8418C139.893 22.8418 140.509 22.666 140.958 22.3145C141.414 21.9629 141.641 21.5169 141.641 20.9766C141.641 20.2344 141.44 19.7038 141.036 19.3848C140.632 19.0592 140.043 18.8965 139.268 18.8965H137.52V16.6016H139.327C140.727 16.582 141.427 15.9473 141.427 14.6973ZM159.231 25H156.301V18.9062H150.588V25H147.659V10.7812H150.588V16.543H156.301V10.7812H159.231V25ZM170.902 22.0703H165.766L164.789 25H161.674L166.967 10.7812H169.682L175.004 25H171.889L170.902 22.0703ZM166.557 19.6973H170.111L168.324 14.375L166.557 19.6973ZM181.871 19.1895H180.181V25H177.252V10.7812H180.181V16.4746H181.519L184.996 10.7812H188.57L184.185 17.5098L189.029 25H185.533L181.871 19.1895Z" fill="white"/>
<path d="M202.644 25H199.704V13.1543H194.011V25H191.081V10.7812H202.644V25ZM214.677 18.8379H209.052V22.6465H215.653V25H206.122V10.7812H215.634V13.1543H209.052V16.543H214.677V18.8379ZM229.62 10.7812V25H226.68V19.6094C225.788 19.7982 224.857 19.8926 223.887 19.8926C222.084 19.8926 220.713 19.4987 219.776 18.7109C218.845 17.9232 218.366 16.7839 218.34 15.293V10.7812H221.28V15.2344C221.286 16.0482 221.482 16.6341 221.866 16.9922C222.256 17.3503 222.93 17.5293 223.887 17.5293C224.857 17.5293 225.788 17.4349 226.68 17.2461V10.7812H229.62ZM241.281 22.0703H236.145L235.168 25H232.053L237.346 10.7812H240.061L245.383 25H242.268L241.281 22.0703ZM236.936 19.6973H240.49L238.703 14.375L236.936 19.6973ZM257.142 13.1543H252.787V25H249.857V13.1543H245.56V10.7812H257.142V13.1543ZM262.808 15.9082H265.093C266.766 15.9082 268.091 16.3151 269.068 17.1289C270.051 17.9362 270.542 19.0267 270.542 20.4004C270.542 21.7806 270.054 22.8906 269.077 23.7305C268.107 24.5638 266.815 24.987 265.2 25H259.859V10.7812H262.808V15.9082ZM262.808 18.2715V22.6465H265.142C265.89 22.6465 266.486 22.4414 266.929 22.0312C267.378 21.6211 267.603 21.071 267.603 20.3809C267.603 19.7363 267.388 19.2285 266.958 18.8574C266.535 18.4798 265.952 18.2845 265.21 18.2715H262.808Z" fill="#228FBD"/>
<path d="M97.3882 47.2661H96.1758V45H89.5425V47.2725H88.3237L88.3174 44.0034H89.0728C89.4705 43.5549 89.7858 42.9539 90.0186 42.2007C90.2555 41.4432 90.4036 40.6138 90.4629 39.7124L90.666 35.7578H96.1948V44.0034H97.4009L97.3882 47.2661ZM90.4629 44.0034H94.9697V36.7607H91.8403L91.707 39.4775C91.652 40.5397 91.5103 41.4453 91.2817 42.1943C91.0575 42.9434 90.7845 43.5464 90.4629 44.0034ZM109.185 40.6772C109.185 41.5828 109.033 42.3742 108.728 43.0513C108.423 43.7241 107.992 44.2383 107.433 44.5938C106.875 44.9492 106.223 45.127 105.478 45.127C104.75 45.127 104.105 44.9492 103.542 44.5938C102.979 44.234 102.541 43.7241 102.228 43.064C101.919 42.3996 101.761 41.6315 101.752 40.7598V40.0933C101.752 39.2046 101.907 38.4196 102.215 37.7383C102.524 37.057 102.96 36.5365 103.523 36.1768C104.09 35.8128 104.738 35.6309 105.465 35.6309C106.206 35.6309 106.858 35.8107 107.421 36.1704C107.988 36.5259 108.423 37.0443 108.728 37.7256C109.033 38.4027 109.185 39.1919 109.185 40.0933V40.6772ZM107.973 40.0806C107.973 38.9845 107.753 38.1445 107.313 37.5605C106.873 36.9723 106.257 36.6782 105.465 36.6782C104.695 36.6782 104.088 36.9723 103.644 37.5605C103.204 38.1445 102.977 38.957 102.964 39.998V40.6772C102.964 41.7394 103.187 42.5752 103.631 43.1846C104.08 43.7897 104.695 44.0923 105.478 44.0923C106.265 44.0923 106.875 43.8066 107.306 43.2354C107.738 42.6598 107.96 41.8368 107.973 40.7661V40.0806ZM115.612 41.3818V45H114.393V35.7578H117.802C118.813 35.7578 119.605 36.016 120.176 36.5322C120.752 37.0485 121.039 37.7319 121.039 38.5825C121.039 39.4797 120.758 40.1715 120.195 40.6582C119.636 41.1406 118.835 41.3818 117.789 41.3818H115.612ZM115.612 40.3853H117.802C118.454 40.3853 118.953 40.2329 119.3 39.9282C119.647 39.6193 119.821 39.175 119.821 38.5952C119.821 38.0451 119.647 37.605 119.3 37.2749C118.953 36.9448 118.477 36.7734 117.872 36.7607H115.612V40.3853ZM133.084 40.6772C133.084 41.5828 132.932 42.3742 132.627 43.0513C132.322 43.7241 131.89 44.2383 131.332 44.5938C130.773 44.9492 130.122 45.127 129.377 45.127C128.649 45.127 128.004 44.9492 127.441 44.5938C126.878 44.234 126.44 43.7241 126.127 43.064C125.818 42.3996 125.659 41.6315 125.651 40.7598V40.0933C125.651 39.2046 125.805 38.4196 126.114 37.7383C126.423 37.057 126.859 36.5365 127.422 36.1768C127.989 35.8128 128.636 35.6309 129.364 35.6309C130.105 35.6309 130.756 35.8107 131.319 36.1704C131.886 36.5259 132.322 37.0443 132.627 37.7256C132.932 38.4027 133.084 39.1919 133.084 40.0933V40.6772ZM131.871 40.0806C131.871 38.9845 131.651 38.1445 131.211 37.5605C130.771 36.9723 130.155 36.6782 129.364 36.6782C128.594 36.6782 127.987 36.9723 127.542 37.5605C127.102 38.1445 126.876 38.957 126.863 39.998V40.6772C126.863 41.7394 127.085 42.5752 127.53 43.1846C127.978 43.7897 128.594 44.0923 129.377 44.0923C130.164 44.0923 130.773 43.8066 131.205 43.2354C131.637 42.6598 131.859 41.8368 131.871 40.7661V40.0806ZM144.646 40.7852H143.656V45H142.437V40.7852H141.39L138.774 45H137.251L140.361 40.125L137.492 35.7578H138.933L141.39 39.7695H142.437V35.7578H143.656V39.7695H144.659L147.115 35.7578H148.55L145.681 40.1187L148.791 45H147.274L144.646 40.7852ZM160.442 45H159.217V40.728H154.558V45H153.339V35.7578H154.558V39.7314H159.217V35.7578H160.442V45ZM171.204 42.5879H167.332L166.463 45H165.206L168.735 35.7578H169.801L173.337 45H172.087L171.204 42.5879ZM167.7 41.585H170.842L169.268 37.2622L167.7 41.585ZM182.798 45V41.4009H180.665L178.755 45H177.453L179.599 41.0645C178.406 40.5947 177.809 39.7547 177.809 38.5444C177.809 37.6642 178.097 36.9808 178.672 36.4941C179.252 36.0033 180.056 35.7578 181.084 35.7578H184.023V45H182.798ZM179.028 38.5444C179.028 39.103 179.201 39.5516 179.548 39.8901C179.899 40.2287 180.386 40.4001 181.008 40.4043H182.798V36.7607H181.065C180.405 36.7607 179.899 36.9173 179.548 37.2305C179.201 37.5436 179.028 37.9816 179.028 38.5444ZM203.282 45H202.057V36.7607H197.499V45H196.28V35.7578H203.282V45ZM214.108 40.728H210.102V44.0034H214.755V45H208.883V35.7578H214.692V36.7607H210.102V39.7314H214.108V40.728ZM226.349 35.7578V45H225.124V41.1724C224.68 41.2993 224.275 41.3882 223.911 41.439C223.548 41.4855 223.133 41.5088 222.667 41.5088C221.614 41.5088 220.831 41.2803 220.319 40.8232C219.807 40.3662 219.544 39.6659 219.532 38.7222V35.7578H220.757V38.6904C220.761 39.3337 220.907 39.797 221.195 40.0806C221.487 40.3641 221.978 40.5059 222.667 40.5059C223.471 40.5059 224.29 40.3916 225.124 40.1631V35.7578H226.349ZM237.149 42.5879H233.277L232.408 45H231.151L234.68 35.7578H235.747L239.282 45H238.032L237.149 42.5879ZM233.645 41.585H236.788L235.213 37.2622L233.645 41.585ZM249.467 36.7607H246.496V45H245.284V36.7607H242.319V35.7578H249.467V36.7607ZM255.5 39.5283H257.798C258.763 39.541 259.516 39.7886 260.058 40.271C260.599 40.7534 260.87 41.4093 260.87 42.2388C260.87 43.0724 260.597 43.7368 260.051 44.2319C259.506 44.7271 258.761 44.9831 257.817 45H254.281V35.7578H255.5V39.5283ZM255.5 40.5312V44.0034H257.728C258.333 44.0034 258.803 43.8426 259.137 43.521C259.476 43.1994 259.645 42.7677 259.645 42.2261C259.645 41.7056 259.482 41.2951 259.156 40.9946C258.835 40.6942 258.376 40.5397 257.779 40.5312H255.5Z" fill="white"/>
<defs>
<linearGradient id="paint0_linear" x1="1.89551" y1="27.2371" x2="71" y2="27.2371" gradientUnits="userSpaceOnUse">
<stop stop-color="#999999"/>
<stop offset="1" stop-color="#7C7C7C"/>
</linearGradient>
<clipPath id="clip0">
<rect width="71" height="59" fill="white"/>
</clipPath>
</defs>
</svg>
