<svg width="303" height="84" viewBox="0 0 303 84" fill="none" xmlns="http://www.w3.org/2000/svg">
<g clip-path="url(#clip0)">
<path d="M24.587 59.0244L24.5832 59.0133L22.3341 55.1592L4.4983 24.5935H0L20.0849 59.017L20.0774 59.0244H20.0887H24.5757H24.587Z" fill="#262E3A"/>
<path d="M42.5764 59.0244L42.5727 59.0133L40.3235 55.1592L38.0744 51.3051L35.8252 47.451L33.5798 43.5969L31.3269 39.7428L22.4877 24.5935H17.9932L29.0778 43.5969L31.3269 47.451L33.5798 51.3051L35.8252 55.1592L38.0744 59.0133L38.0706 59.0244H38.0781H42.5689H42.5764Z" fill="#262E3A"/>
<path d="M49.3201 55.1592L47.071 51.3051L44.8218 47.451L42.5727 43.5969L40.3235 39.7428L38.0744 35.8887L35.8252 32.0346L31.4844 24.5935H26.9861L33.5761 35.8887L38.0744 43.5969L40.3235 47.451L42.5727 51.3051L44.8218 55.1592L47.071 59.0133L47.0672 59.0244H47.0747H51.5655H51.573L51.5693 59.017L49.3201 55.1592Z" fill="#262E3A"/>
<path d="M59.0139 0H54.5156L38.0968 28.1397L40.3497 31.9938L59.0139 0Z" fill="#FF1200"/>
<path d="M29.0853 59.0244H33.5723H33.5835L33.5798 59.0133L31.3269 55.1592L29.0815 51.3051L26.8324 47.451L13.4949 24.5935H8.9966L24.5832 51.3051L26.8324 55.1592L29.0815 59.0133L29.074 59.0244H29.0853Z" fill="#262E3A"/>
<path d="M44.8443 39.702L68.0105 0H63.5122L42.5952 35.8479L42.6214 35.8887L44.8443 39.702Z" fill="#FF1200"/>
<path d="M49.3426 47.4139L77.0034 0H72.5088L47.0934 43.5561L47.1159 43.5969L49.3426 47.4139Z" fill="#FF1200"/>
<path d="M86 0H81.5017L51.5918 51.2643L51.6143 51.3051L53.8409 55.1221L86 0Z" fill="#FF1200"/>
</g>
<path d="M101.363 38.0391C100.543 38.0391 99.8281 37.9531 99.2188 37.7812V34.7578C99.8438 34.9141 100.414 34.9922 100.93 34.9922C101.727 34.9922 102.297 34.7422 102.641 34.2422C102.984 33.75 103.156 32.9766 103.156 31.9219V15.8672H106.789V31.8984C106.789 33.8984 106.332 35.4219 105.418 36.4688C104.504 37.5156 103.152 38.0391 101.363 38.0391ZM121.689 33H111.822V15.8672H121.689V18.8438H115.454V22.6055H121.255V25.582H115.454V30H121.689V33ZM132.604 33H128.971V18.8906H124.319V15.8672H137.256V18.8906H132.604V33ZM147.222 33H143.59V18.8906H138.937V15.8672H151.875V18.8906H147.222V33ZM158.864 23.4727H160.036C161.185 23.4727 162.032 23.2812 162.579 22.8984C163.126 22.5156 163.4 21.9141 163.4 21.0938C163.4 20.2812 163.118 19.7031 162.556 19.3594C162.001 19.0156 161.138 18.8438 159.966 18.8438H158.864V23.4727ZM158.864 26.4258V33H155.232V15.8672H160.224C162.552 15.8672 164.275 16.293 165.392 17.1445C166.509 17.9883 167.068 19.2734 167.068 21C167.068 22.0078 166.79 22.9062 166.235 23.6953C165.681 24.4766 164.896 25.0898 163.88 25.5352C166.458 29.3867 168.138 31.875 168.919 33H164.888L160.798 26.4258H158.864ZM182.284 33L181.041 28.9219H174.795L173.553 33H169.639L175.686 15.7969H180.127L186.198 33H182.284ZM180.174 25.875C179.026 22.1797 178.377 20.0898 178.229 19.6055C178.088 19.1211 177.987 18.7383 177.924 18.457C177.666 19.457 176.928 21.9297 175.709 25.875H180.174ZM196.363 18.6445C194.996 18.6445 193.937 19.1602 193.187 20.1914C192.437 21.2148 192.062 22.6445 192.062 24.4805C192.062 28.3008 193.496 30.2109 196.363 30.2109C197.566 30.2109 199.023 29.9102 200.734 29.3086V32.3555C199.328 32.9414 197.757 33.2344 196.023 33.2344C193.531 33.2344 191.625 32.4805 190.304 30.9727C188.984 29.457 188.324 27.2852 188.324 24.457C188.324 22.6758 188.648 21.1172 189.297 19.7812C189.945 18.4375 190.875 17.4102 192.086 16.6992C193.304 15.9805 194.73 15.6211 196.363 15.6211C198.027 15.6211 199.699 16.0234 201.379 16.8281L200.207 19.7812C199.566 19.4766 198.922 19.2109 198.273 18.9844C197.625 18.7578 196.988 18.6445 196.363 18.6445ZM204.325 31.3242C204.325 30.668 204.501 30.1719 204.853 29.8359C205.204 29.5 205.716 29.332 206.388 29.332C207.036 29.332 207.536 29.5039 207.888 29.8477C208.247 30.1914 208.427 30.6836 208.427 31.3242C208.427 31.9414 208.247 32.4297 207.888 32.7891C207.528 33.1406 207.028 33.3164 206.388 33.3164C205.731 33.3164 205.224 33.1445 204.864 32.8008C204.505 32.4492 204.325 31.957 204.325 31.3242ZM216.307 23.4727H217.479C218.627 23.4727 219.475 23.2812 220.022 22.8984C220.569 22.5156 220.842 21.9141 220.842 21.0938C220.842 20.2812 220.561 19.7031 219.998 19.3594C219.444 19.0156 218.58 18.8438 217.408 18.8438H216.307V23.4727ZM216.307 26.4258V33H212.674V15.8672H217.666C219.994 15.8672 221.717 16.293 222.834 17.1445C223.951 17.9883 224.51 19.2734 224.51 21C224.51 22.0078 224.233 22.9062 223.678 23.6953C223.123 24.4766 222.338 25.0898 221.323 25.5352C223.901 29.3867 225.58 31.875 226.362 33H222.33L218.24 26.4258H216.307ZM243.183 15.8672V26.9531C243.183 28.2188 242.898 29.3281 242.328 30.2812C241.765 31.2344 240.949 31.9648 239.878 32.4727C238.808 32.9805 237.543 33.2344 236.082 33.2344C233.878 33.2344 232.168 32.6719 230.949 31.5469C229.73 30.4141 229.121 28.8672 229.121 26.9062V15.8672H232.742V26.3555C232.742 27.6758 233.007 28.6445 233.539 29.2617C234.07 29.8789 234.949 30.1875 236.175 30.1875C237.363 30.1875 238.222 29.8789 238.753 29.2617C239.293 28.6367 239.562 27.6602 239.562 26.332V15.8672H243.183Z" fill="#232323"/>
<path d="M103.929 51H103.307V44.6841H100.863C100.736 46.3556 100.579 47.6315 100.393 48.5117C100.211 49.3877 99.9741 50.033 99.6821 50.4478C99.3944 50.8582 99.0199 51.0635 98.5586 51.0635C98.3936 51.0635 98.2497 51.0465 98.127 51.0127V50.4414C98.2074 50.4668 98.3216 50.4795 98.4697 50.4795C98.9479 50.4795 99.333 49.9759 99.625 48.9688C99.9212 47.9574 100.146 46.3345 100.298 44.1001H103.929V51ZM109.026 51.127C108.023 51.127 107.24 50.818 106.677 50.2002C106.119 49.5824 105.839 48.717 105.839 47.604C105.839 46.5037 106.11 45.6235 106.652 44.9634C107.194 44.299 107.924 43.9668 108.842 43.9668C109.654 43.9668 110.295 44.2503 110.765 44.8174C111.235 45.3844 111.47 46.1546 111.47 47.1279V47.6357H106.5C106.508 48.5837 106.728 49.3073 107.16 49.8066C107.596 50.306 108.218 50.5557 109.026 50.5557C109.419 50.5557 109.764 50.5282 110.061 50.4731C110.361 50.4181 110.74 50.2996 111.197 50.1177V50.689C110.807 50.8582 110.448 50.9725 110.118 51.0317C109.788 51.0952 109.424 51.127 109.026 51.127ZM108.842 44.5254C108.177 44.5254 107.644 44.7454 107.242 45.1855C106.84 45.6214 106.605 46.252 106.538 47.0771H110.803C110.803 46.2773 110.63 45.6532 110.283 45.2046C109.936 44.7518 109.455 44.5254 108.842 44.5254ZM114.002 44.1001V47.1279H118.382V44.1001H119.004V51H118.382V47.6738H114.002V51H113.374V44.1001H114.002ZM125.701 44.646H123.403V51H122.781V44.646H120.426V44.1001H125.701V44.646ZM132.83 47.5405C132.83 48.6662 132.557 49.5464 132.011 50.1812C131.465 50.8117 130.712 51.127 129.751 51.127C129.146 51.127 128.613 50.981 128.151 50.689C127.69 50.397 127.337 49.978 127.091 49.4321C126.846 48.8862 126.723 48.2557 126.723 47.5405C126.723 46.4149 126.996 45.5389 127.542 44.9126C128.088 44.2821 128.837 43.9668 129.789 43.9668C130.737 43.9668 131.48 44.2863 132.017 44.9253C132.559 45.5601 132.83 46.4318 132.83 47.5405ZM127.383 47.5405C127.383 48.4884 127.591 49.229 128.005 49.7622C128.424 50.2912 129.015 50.5557 129.776 50.5557C130.538 50.5557 131.126 50.2912 131.541 49.7622C131.96 49.229 132.169 48.4884 132.169 47.5405C132.169 46.5884 131.958 45.8499 131.535 45.3252C131.116 44.8005 130.525 44.5381 129.764 44.5381C129.002 44.5381 128.414 44.8005 127.999 45.3252C127.589 45.8457 127.383 46.5841 127.383 47.5405ZM135.248 44.1001V46.4106C135.248 46.9946 135.39 47.4157 135.673 47.6738C135.957 47.932 136.393 48.061 136.981 48.061C137.396 48.061 137.791 47.987 138.168 47.8389C138.545 47.6908 138.936 47.4538 139.342 47.1279V44.1001H139.971V51H139.342V47.7246C138.919 48.0505 138.502 48.2832 138.092 48.4229C137.686 48.5625 137.245 48.6323 136.771 48.6323C136.065 48.6323 135.529 48.4482 135.166 48.0801C134.806 47.7119 134.626 47.1808 134.626 46.4868V44.1001H135.248ZM142.91 44.1001V47.1279H147.29V44.1001H147.912V51H147.29V47.6738H142.91V51H142.281V44.1001H142.91ZM150.857 47.0073H153.053C154.674 47.0073 155.484 47.6442 155.484 48.918C155.484 49.5739 155.258 50.0859 154.805 50.4541C154.352 50.818 153.703 51 152.856 51H150.229V44.1001H150.857V47.0073ZM150.857 47.604V50.4033H152.958C153.555 50.4033 154.014 50.2785 154.335 50.0288C154.657 49.7791 154.818 49.4046 154.818 48.9053C154.818 48.4482 154.676 48.1182 154.393 47.915C154.109 47.7077 153.618 47.604 152.92 47.604H150.857ZM157.312 51H156.69V44.1001H157.312V51ZM162.422 51.127C161.419 51.127 160.637 50.818 160.074 50.2002C159.515 49.5824 159.236 48.717 159.236 47.604C159.236 46.5037 159.507 45.6235 160.048 44.9634C160.59 44.299 161.32 43.9668 162.238 43.9668C163.051 43.9668 163.692 44.2503 164.162 44.8174C164.631 45.3844 164.866 46.1546 164.866 47.1279V47.6357H159.896C159.904 48.5837 160.125 49.3073 160.556 49.8066C160.992 50.306 161.614 50.5557 162.422 50.5557C162.816 50.5557 163.161 50.5282 163.457 50.4731C163.757 50.4181 164.136 50.2996 164.593 50.1177V50.689C164.204 50.8582 163.844 50.9725 163.514 51.0317C163.184 51.0952 162.82 51.127 162.422 51.127ZM162.238 44.5254C161.574 44.5254 161.041 44.7454 160.639 45.1855C160.237 45.6214 160.002 46.252 159.934 47.0771H164.2C164.2 46.2773 164.026 45.6532 163.679 45.2046C163.332 44.7518 162.852 44.5254 162.238 44.5254ZM175.854 47.5405C175.854 48.6662 175.581 49.5464 175.035 50.1812C174.489 50.8117 173.736 51.127 172.775 51.127C172.17 51.127 171.637 50.981 171.176 50.689C170.715 50.397 170.361 49.978 170.116 49.4321C169.87 48.8862 169.748 48.2557 169.748 47.5405C169.748 46.4149 170.021 45.5389 170.566 44.9126C171.112 44.2821 171.861 43.9668 172.813 43.9668C173.761 43.9668 174.504 44.2863 175.042 44.9253C175.583 45.5601 175.854 46.4318 175.854 47.5405ZM170.408 47.5405C170.408 48.4884 170.615 49.229 171.03 49.7622C171.449 50.2912 172.039 50.5557 172.801 50.5557C173.562 50.5557 174.151 50.2912 174.565 49.7622C174.984 49.229 175.194 48.4884 175.194 47.5405C175.194 46.5884 174.982 45.8499 174.559 45.3252C174.14 44.8005 173.55 44.5381 172.788 44.5381C172.026 44.5381 171.438 44.8005 171.023 45.3252C170.613 45.8457 170.408 46.5841 170.408 47.5405ZM181.821 44.646H178.393V51H177.765V44.1001H181.821V44.646ZM186.188 51.127C185.126 51.127 184.351 50.7292 183.865 49.9336H183.82L183.839 50.4668C183.856 50.7799 183.865 51.1227 183.865 51.4951V54.123H183.236V44.1001H183.77L183.89 45.084H183.928C184.402 44.3392 185.16 43.9668 186.201 43.9668C187.132 43.9668 187.84 44.2736 188.327 44.8872C188.818 45.4966 189.063 46.3853 189.063 47.5532C189.063 48.6873 188.805 49.5675 188.289 50.1938C187.777 50.8159 187.077 51.127 186.188 51.127ZM186.175 50.5684C186.882 50.5684 187.428 50.306 187.813 49.7812C188.202 49.2565 188.397 48.5223 188.397 47.5786C188.397 45.5516 187.665 44.5381 186.201 44.5381C185.397 44.5381 184.806 44.7603 184.43 45.2046C184.053 45.6447 183.865 46.3641 183.865 47.3628V47.5659C183.865 48.645 184.045 49.4152 184.404 49.8765C184.768 50.3377 185.359 50.5684 186.175 50.5684ZM195.17 51L195.011 49.9082H194.96C194.613 50.3525 194.256 50.6678 193.888 50.854C193.524 51.036 193.092 51.127 192.593 51.127C191.916 51.127 191.389 50.9535 191.012 50.6064C190.636 50.2594 190.447 49.7791 190.447 49.1655C190.447 48.4927 190.727 47.9701 191.285 47.5977C191.848 47.2253 192.66 47.0285 193.723 47.0073L195.037 46.9692V46.5122C195.037 45.8563 194.903 45.3612 194.637 45.0269C194.37 44.6925 193.941 44.5254 193.348 44.5254C192.709 44.5254 192.047 44.7031 191.361 45.0586L191.126 44.5127C191.884 44.1572 192.633 43.9795 193.374 43.9795C194.131 43.9795 194.696 44.1763 195.068 44.5698C195.445 44.9634 195.633 45.577 195.633 46.4106V51H195.17ZM192.631 50.5557C193.367 50.5557 193.947 50.3462 194.37 49.9272C194.798 49.5041 195.011 48.918 195.011 48.1689V47.4897L193.805 47.5405C192.836 47.5871 192.144 47.7394 191.729 47.9976C191.319 48.2515 191.114 48.6493 191.114 49.1909C191.114 49.6226 191.245 49.959 191.507 50.2002C191.774 50.4372 192.148 50.5557 192.631 50.5557ZM200.724 44.1001H201.359V47.4517L204.323 44.1001H205.091L202.102 47.4517L205.326 51H204.52L201.359 47.5024V51H200.724V47.5024L197.563 51H196.757L199.969 47.4771L196.992 44.1001H197.76L200.724 47.4517V44.1001ZM212.15 53.3423H211.528V51H206.247V53.3423H205.625V50.4033H206.082C206.657 49.5951 207.101 48.6577 207.415 47.5913C207.728 46.5249 207.893 45.3612 207.91 44.1001H211.229V50.4033H212.15V53.3423ZM210.601 50.4033V44.6841H208.456C208.354 46.9735 207.8 48.8799 206.792 50.4033H210.601ZM216.403 51.127C215.4 51.127 214.617 50.818 214.054 50.2002C213.496 49.5824 213.216 48.717 213.216 47.604C213.216 46.5037 213.487 45.6235 214.029 44.9634C214.57 44.299 215.3 43.9668 216.219 43.9668C217.031 43.9668 217.672 44.2503 218.142 44.8174C218.612 45.3844 218.847 46.1546 218.847 47.1279V47.6357H213.876C213.885 48.5837 214.105 49.3073 214.537 49.8066C214.972 50.306 215.595 50.5557 216.403 50.5557C216.796 50.5557 217.141 50.5282 217.438 50.4731C217.738 50.4181 218.117 50.2996 218.574 50.1177V50.689C218.184 50.8582 217.825 50.9725 217.495 51.0317C217.165 51.0952 216.801 51.127 216.403 51.127ZM216.219 44.5254C215.554 44.5254 215.021 44.7454 214.619 45.1855C214.217 45.6214 213.982 46.252 213.915 47.0771H218.18C218.18 46.2773 218.007 45.6532 217.66 45.2046C217.313 44.7518 216.832 44.5254 216.219 44.5254ZM221.379 44.1001V47.1279H225.759V44.1001H226.381V51H225.759V47.6738H221.379V51H220.751V44.1001H221.379ZM229.295 44.1001V49.0894L229.257 50.3906L233.351 44.1001H234.189V51H233.586V46.0425L233.611 44.7095L229.517 51H228.698V44.1001H229.295ZM236.404 51H235.611L237.693 48.0229C237.058 47.9045 236.599 47.6844 236.315 47.3628C236.036 47.0412 235.896 46.6286 235.896 46.125C235.896 45.4987 236.106 45.0057 236.525 44.646C236.948 44.2821 237.515 44.1001 238.226 44.1001H241.07V51H240.448V48.0991H238.34L236.404 51ZM236.557 46.0996C236.557 46.5736 236.709 46.9269 237.014 47.1597C237.323 47.3882 237.786 47.5024 238.404 47.5024H240.448V44.6968H238.213C237.689 44.6968 237.28 44.8174 236.988 45.0586C236.701 45.2956 236.557 45.6426 236.557 46.0996Z" fill="#232323"/>
<defs>
<clipPath id="clip0">
<rect width="86" height="84" fill="white"/>
</clipPath>
</defs>
</svg>
