<svg width="273" height="62" viewBox="0 0 273 62" fill="none" xmlns="http://www.w3.org/2000/svg">
<g clip-path="url(#clip0)">
<path d="M36.9415 19.0157L25.4195 34.5144L35.7951 21.4258L49.1903 37.1804L58.7464 29.34L50.3366 34.7653L36.9415 19.0157Z" fill="#228FBD"/>
<path d="M60.3561 59.0784C59.2439 60.0326 58.3317 59.6096 58.3317 58.134V53.5842H7.60001C6.62343 53.5881 5.65883 53.3675 4.77951 52.939C3.9002 52.5106 3.12932 51.8857 2.52546 51.1118C1.92161 50.3379 1.50069 49.4354 1.29468 48.4728C1.08867 47.5103 1.103 46.513 1.33659 45.5569L1.28293 45.6307C0.56751 46.594 0.132168 47.7392 0.0256542 48.9379C-0.0808594 50.1366 0.145661 51.3416 0.67985 52.4178C1.21404 53.4941 2.03481 54.3992 3.05024 55.0317C4.06568 55.6642 5.2357 55.9993 6.42927 55.9993H57.161V60.5441C57.161 62.0197 58.0732 62.4477 59.1903 61.4934L71.1659 51.2478C71.4732 50.9985 71.7093 50.6712 71.8499 50.2995C71.9905 49.9279 72.0305 49.5252 71.9659 49.1328L60.3561 59.0784Z" fill="#228FBD"/>
<path d="M73.1707 43.0238L61.1854 32.7781C60.0732 31.8288 59.161 32.2518 59.161 33.7274V38.2772H21.2488L37.0098 17.0236L50.4049 32.7634L60.6488 25.8084L41.7902 2.39544C41.1736 1.62977 40.3918 1.01606 39.5044 0.60106C38.6171 0.186057 37.6474 -0.0193012 36.6695 0.000620747C35.6915 0.0205427 34.7309 0.26522 33.8608 0.716021C32.9908 1.16682 32.2342 1.81186 31.6488 2.60203L3.25853 40.8743C2.54286 41.838 2.10747 42.9836 2.00115 44.1828C1.89482 45.3819 2.12176 46.5872 2.65654 47.6637C3.19132 48.7401 4.01281 49.6451 5.02896 50.2773C6.0451 50.9094 7.21576 51.2438 8.40975 51.2429H59.1415V55.7927C59.1415 57.2683 60.0537 57.6913 61.1658 56.737L73.1707 46.4914C73.4314 46.2853 73.6422 46.0221 73.7871 45.7217C73.932 45.4213 74.0074 45.0916 74.0074 44.7576C74.0074 44.4236 73.932 44.0939 73.7871 43.7935C73.6422 43.4931 73.4314 43.2299 73.1707 43.0238Z" fill="url(#paint0_linear)"/>
<path d="M70.7111 45.4666H8.22223L37.359 6.61331L54.751 27.9522" stroke="white" stroke-width="3" stroke-linejoin="round" stroke-dasharray="16.16 22.11"/>
</g>
<path d="M104.453 30.4961H101.748V27H93.1738V30.4863H90.4004L90.2441 24.6465H91.3184C91.8978 24.1647 92.3438 23.4583 92.6562 22.5273C92.9753 21.5898 93.1901 20.431 93.3008 19.0508L93.7109 12.7812H103.027V24.6465H104.688L104.453 30.4961ZM94.6777 24.6465H100.098V15.1543H96.4941L96.25 18.8945C96.0547 21.401 95.5306 23.3184 94.6777 24.6465ZM118.576 20.2129C118.576 21.6126 118.328 22.8398 117.834 23.8945C117.339 24.9492 116.629 25.763 115.705 26.3359C114.787 26.9089 113.732 27.1953 112.541 27.1953C111.362 27.1953 110.311 26.9121 109.386 26.3457C108.462 25.7793 107.746 24.972 107.238 23.9238C106.73 22.8691 106.473 21.6582 106.466 20.291V19.5879C106.466 18.1882 106.717 16.9577 107.218 15.8965C107.726 14.8288 108.439 14.0117 109.357 13.4453C110.282 12.8724 111.336 12.5859 112.521 12.5859C113.706 12.5859 114.757 12.8724 115.675 13.4453C116.6 14.0117 117.313 14.8288 117.814 15.8965C118.322 16.9577 118.576 18.1849 118.576 19.5781V20.2129ZM115.607 19.5684C115.607 18.0775 115.34 16.9447 114.806 16.1699C114.272 15.3952 113.511 15.0078 112.521 15.0078C111.538 15.0078 110.78 15.3919 110.246 16.1602C109.712 16.9219 109.442 18.0417 109.435 19.5195V20.2129C109.435 21.6647 109.702 22.791 110.236 23.5918C110.77 24.3926 111.538 24.793 112.541 24.793C113.524 24.793 114.279 24.4089 114.806 23.6406C115.334 22.8659 115.601 21.7396 115.607 20.2617V19.5684ZM124.534 21.9902V27H121.605V12.7812H127.152C128.219 12.7812 129.157 12.9766 129.964 13.3672C130.778 13.7578 131.403 14.3145 131.839 15.0371C132.275 15.7533 132.493 16.5703 132.493 17.4883C132.493 18.8815 132.015 19.9818 131.058 20.7891C130.107 21.5898 128.789 21.9902 127.103 21.9902H124.534ZM124.534 19.6172H127.152C127.926 19.6172 128.515 19.4349 128.919 19.0703C129.329 18.7057 129.534 18.1849 129.534 17.5078C129.534 16.8112 129.329 16.248 128.919 15.8184C128.509 15.3887 127.943 15.1673 127.22 15.1543H124.534V19.6172ZM142.427 16.6973C142.427 16.1569 142.215 15.7337 141.792 15.4277C141.369 15.1152 140.809 14.959 140.112 14.959C139.487 14.959 138.966 15.1152 138.55 15.4277C138.139 15.7337 137.934 16.1341 137.934 16.6289H135.005C135.005 15.8607 135.22 15.1706 135.649 14.5586C136.085 13.9401 136.701 13.4583 137.495 13.1133C138.296 12.7682 139.168 12.5957 140.112 12.5957C141.753 12.5957 143.039 12.9473 143.97 13.6504C144.901 14.3535 145.366 15.3496 145.366 16.6387C145.366 17.2702 145.174 17.8561 144.79 18.3965C144.412 18.9368 143.872 19.3698 143.169 19.6953C143.95 19.9688 144.549 20.3854 144.966 20.9453C145.382 21.4987 145.591 22.1888 145.591 23.0156C145.591 24.2917 145.089 25.3073 144.087 26.0625C143.091 26.8112 141.766 27.1855 140.112 27.1855C139.077 27.1855 138.146 27.0098 137.319 26.6582C136.492 26.3001 135.864 25.8151 135.434 25.2031C135.011 24.5846 134.8 23.8685 134.8 23.0547H137.749C137.749 23.5625 137.97 23.9889 138.413 24.334C138.856 24.6725 139.422 24.8418 140.112 24.8418C140.893 24.8418 141.509 24.666 141.958 24.3145C142.414 23.9629 142.641 23.5169 142.641 22.9766C142.641 22.2344 142.44 21.7038 142.036 21.3848C141.632 21.0592 141.043 20.8965 140.268 20.8965H138.52V18.6016H140.327C141.727 18.582 142.427 17.9473 142.427 16.6973ZM160.231 27H157.301V20.9062H151.588V27H148.659V12.7812H151.588V18.543H157.301V12.7812H160.231V27ZM171.902 24.0703H166.766L165.789 27H162.674L167.967 12.7812H170.682L176.004 27H172.889L171.902 24.0703ZM167.557 21.6973H171.111L169.324 16.375L167.557 21.6973ZM182.871 21.1895H181.181V27H178.252V12.7812H181.181V18.4746H182.519L185.996 12.7812H189.57L185.185 19.5098L190.029 27H186.533L182.871 21.1895Z" fill="#505050"/>
<path d="M203.644 27H200.704V15.1543H195.011V27H192.081V12.7812H203.644V27ZM215.677 20.8379H210.052V24.6465H216.653V27H207.122V12.7812H216.634V15.1543H210.052V18.543H215.677V20.8379ZM230.62 12.7812V27H227.68V21.6094C226.788 21.7982 225.857 21.8926 224.887 21.8926C223.084 21.8926 221.713 21.4987 220.776 20.7109C219.845 19.9232 219.366 18.7839 219.34 17.293V12.7812H222.28V17.2344C222.286 18.0482 222.482 18.6341 222.866 18.9922C223.256 19.3503 223.93 19.5293 224.887 19.5293C225.857 19.5293 226.788 19.4349 227.68 19.2461V12.7812H230.62ZM242.281 24.0703H237.145L236.168 27H233.053L238.346 12.7812H241.061L246.383 27H243.268L242.281 24.0703ZM237.936 21.6973H241.49L239.703 16.375L237.936 21.6973ZM258.142 15.1543H253.787V27H250.857V15.1543H246.56V12.7812H258.142V15.1543ZM263.808 17.9082H266.093C267.766 17.9082 269.091 18.3151 270.068 19.1289C271.051 19.9362 271.542 21.0267 271.542 22.4004C271.542 23.7806 271.054 24.8906 270.077 25.7305C269.107 26.5638 267.815 26.987 266.2 27H260.859V12.7812H263.808V17.9082ZM263.808 20.2715V24.6465H266.142C266.89 24.6465 267.486 24.4414 267.929 24.0312C268.378 23.6211 268.603 23.071 268.603 22.3809C268.603 21.7363 268.388 21.2285 267.958 20.8574C267.535 20.4798 266.952 20.2845 266.21 20.2715H263.808Z" fill="#228FBD"/>
<path d="M99.3882 49.2661H98.1758V47H91.5425V49.2725H90.3237L90.3174 46.0034H91.0728C91.4705 45.5549 91.7858 44.9539 92.0186 44.2007C92.2555 43.4432 92.4036 42.6138 92.4629 41.7124L92.666 37.7578H98.1948V46.0034H99.4009L99.3882 49.2661ZM92.4629 46.0034H96.9697V38.7607H93.8403L93.707 41.4775C93.652 42.5397 93.5103 43.4453 93.2817 44.1943C93.0575 44.9434 92.7845 45.5464 92.4629 46.0034ZM111.185 42.6772C111.185 43.5828 111.033 44.3742 110.728 45.0513C110.423 45.7241 109.992 46.2383 109.433 46.5938C108.875 46.9492 108.223 47.127 107.478 47.127C106.75 47.127 106.105 46.9492 105.542 46.5938C104.979 46.234 104.541 45.7241 104.228 45.064C103.919 44.3996 103.761 43.6315 103.752 42.7598V42.0933C103.752 41.2046 103.907 40.4196 104.215 39.7383C104.524 39.057 104.96 38.5365 105.523 38.1768C106.09 37.8128 106.738 37.6309 107.465 37.6309C108.206 37.6309 108.858 37.8107 109.421 38.1704C109.988 38.5259 110.423 39.0443 110.728 39.7256C111.033 40.4027 111.185 41.1919 111.185 42.0933V42.6772ZM109.973 42.0806C109.973 40.9845 109.753 40.1445 109.313 39.5605C108.873 38.9723 108.257 38.6782 107.465 38.6782C106.695 38.6782 106.088 38.9723 105.644 39.5605C105.204 40.1445 104.977 40.957 104.964 41.998V42.6772C104.964 43.7394 105.187 44.5752 105.631 45.1846C106.08 45.7897 106.695 46.0923 107.478 46.0923C108.265 46.0923 108.875 45.8066 109.306 45.2354C109.738 44.6598 109.96 43.8368 109.973 42.7661V42.0806ZM117.612 43.3818V47H116.393V37.7578H119.802C120.813 37.7578 121.605 38.016 122.176 38.5322C122.752 39.0485 123.039 39.7319 123.039 40.5825C123.039 41.4797 122.758 42.1715 122.195 42.6582C121.636 43.1406 120.835 43.3818 119.789 43.3818H117.612ZM117.612 42.3853H119.802C120.454 42.3853 120.953 42.2329 121.3 41.9282C121.647 41.6193 121.821 41.175 121.821 40.5952C121.821 40.0451 121.647 39.605 121.3 39.2749C120.953 38.9448 120.477 38.7734 119.872 38.7607H117.612V42.3853ZM135.084 42.6772C135.084 43.5828 134.932 44.3742 134.627 45.0513C134.322 45.7241 133.89 46.2383 133.332 46.5938C132.773 46.9492 132.122 47.127 131.377 47.127C130.649 47.127 130.004 46.9492 129.441 46.5938C128.878 46.234 128.44 45.7241 128.127 45.064C127.818 44.3996 127.659 43.6315 127.651 42.7598V42.0933C127.651 41.2046 127.805 40.4196 128.114 39.7383C128.423 39.057 128.859 38.5365 129.422 38.1768C129.989 37.8128 130.636 37.6309 131.364 37.6309C132.105 37.6309 132.756 37.8107 133.319 38.1704C133.886 38.5259 134.322 39.0443 134.627 39.7256C134.932 40.4027 135.084 41.1919 135.084 42.0933V42.6772ZM133.871 42.0806C133.871 40.9845 133.651 40.1445 133.211 39.5605C132.771 38.9723 132.155 38.6782 131.364 38.6782C130.594 38.6782 129.987 38.9723 129.542 39.5605C129.102 40.1445 128.876 40.957 128.863 41.998V42.6772C128.863 43.7394 129.085 44.5752 129.53 45.1846C129.978 45.7897 130.594 46.0923 131.377 46.0923C132.164 46.0923 132.773 45.8066 133.205 45.2354C133.637 44.6598 133.859 43.8368 133.871 42.7661V42.0806ZM146.646 42.7852H145.656V47H144.437V42.7852H143.39L140.774 47H139.251L142.361 42.125L139.492 37.7578H140.933L143.39 41.7695H144.437V37.7578H145.656V41.7695H146.659L149.115 37.7578H150.55L147.681 42.1187L150.791 47H149.274L146.646 42.7852ZM162.442 47H161.217V42.728H156.558V47H155.339V37.7578H156.558V41.7314H161.217V37.7578H162.442V47ZM173.204 44.5879H169.332L168.463 47H167.206L170.735 37.7578H171.801L175.337 47H174.087L173.204 44.5879ZM169.7 43.585H172.842L171.268 39.2622L169.7 43.585ZM184.798 47V43.4009H182.665L180.755 47H179.453L181.599 43.0645C180.406 42.5947 179.809 41.7547 179.809 40.5444C179.809 39.6642 180.097 38.9808 180.672 38.4941C181.252 38.0033 182.056 37.7578 183.084 37.7578H186.023V47H184.798ZM181.028 40.5444C181.028 41.103 181.201 41.5516 181.548 41.8901C181.899 42.2287 182.386 42.4001 183.008 42.4043H184.798V38.7607H183.065C182.405 38.7607 181.899 38.9173 181.548 39.2305C181.201 39.5436 181.028 39.9816 181.028 40.5444ZM205.282 47H204.057V38.7607H199.499V47H198.28V37.7578H205.282V47ZM216.108 42.728H212.102V46.0034H216.755V47H210.883V37.7578H216.692V38.7607H212.102V41.7314H216.108V42.728ZM228.349 37.7578V47H227.124V43.1724C226.68 43.2993 226.275 43.3882 225.911 43.439C225.548 43.4855 225.133 43.5088 224.667 43.5088C223.614 43.5088 222.831 43.2803 222.319 42.8232C221.807 42.3662 221.544 41.6659 221.532 40.7222V37.7578H222.757V40.6904C222.761 41.3337 222.907 41.797 223.195 42.0806C223.487 42.3641 223.978 42.5059 224.667 42.5059C225.471 42.5059 226.29 42.3916 227.124 42.1631V37.7578H228.349ZM239.149 44.5879H235.277L234.408 47H233.151L236.68 37.7578H237.747L241.282 47H240.032L239.149 44.5879ZM235.645 43.585H238.788L237.213 39.2622L235.645 43.585ZM251.467 38.7607H248.496V47H247.284V38.7607H244.319V37.7578H251.467V38.7607ZM257.5 41.5283H259.798C260.763 41.541 261.516 41.7886 262.058 42.271C262.599 42.7534 262.87 43.4093 262.87 44.2388C262.87 45.0724 262.597 45.7368 262.051 46.2319C261.506 46.7271 260.761 46.9831 259.817 47H256.281V37.7578H257.5V41.5283ZM257.5 42.5312V46.0034H259.728C260.333 46.0034 260.803 45.8426 261.137 45.521C261.476 45.1994 261.645 44.7677 261.645 44.2261C261.645 43.7056 261.482 43.2951 261.156 42.9946C260.835 42.6942 260.376 42.5397 259.779 42.5312H257.5Z" fill="#505050"/>
<defs>
<linearGradient id="paint0_linear" x1="1.97561" y1="28.6219" x2="74" y2="28.6219" gradientUnits="userSpaceOnUse">
<stop stop-color="#999999"/>
<stop offset="1" stop-color="#7C7C7C"/>
</linearGradient>
<clipPath id="clip0">
<rect width="74" height="62" fill="white"/>
</clipPath>
</defs>
</svg>
