<svg width="28" height="28" viewBox="0 0 28 28" fill="none" xmlns="http://www.w3.org/2000/svg">
<path d="M23.3333 4.66675H4.66666C3.38333 4.66675 2.33333 5.71675 2.33333 7.00008V21.0001C2.33333 22.2834 3.38333 23.3334 4.66666 23.3334H23.3333C24.6167 23.3334 25.6667 22.2834 25.6667 21.0001V7.00008C25.6667 5.71675 24.6167 4.66675 23.3333 4.66675ZM22.8667 9.62508L15.2367 14.3967C14.4783 14.8751 13.5217 14.8751 12.7633 14.3967L5.13333 9.62508C5.01634 9.55941 4.9139 9.47069 4.8322 9.36428C4.7505 9.25787 4.69123 9.13599 4.658 9.00601C4.62476 8.87604 4.61825 8.74067 4.63884 8.60811C4.65944 8.47554 4.70672 8.34853 4.77782 8.23477C4.84893 8.121 4.94237 8.02285 5.05251 7.94624C5.16264 7.86964 5.28718 7.81618 5.41857 7.7891C5.54997 7.76201 5.68549 7.76188 5.81694 7.78869C5.94839 7.8155 6.07304 7.8687 6.18333 7.94508L14 12.8334L21.8167 7.94508C21.927 7.8687 22.0516 7.8155 22.1831 7.78869C22.3145 7.76188 22.45 7.76201 22.5814 7.7891C22.7128 7.81618 22.8373 7.86964 22.9475 7.94624C23.0576 8.02285 23.1511 8.121 23.2222 8.23477C23.2933 8.34853 23.3406 8.47554 23.3611 8.60811C23.3817 8.74067 23.3752 8.87604 23.342 9.00601C23.3088 9.13599 23.2495 9.25787 23.1678 9.36428C23.0861 9.47069 22.9836 9.55941 22.8667 9.62508Z" fill="#1C86E4"/>
</svg>
