<svg width="31" height="31" viewBox="0 0 31 31" fill="none" xmlns="http://www.w3.org/2000/svg">
<path d="M26.4625 22.1392L21.2119 17.3652C20.9637 17.1396 20.6375 17.0193 20.3023 17.0296C19.967 17.04 19.649 17.1802 19.4152 17.4207L16.3242 20.5995C15.5802 20.4574 14.0845 19.9911 12.5448 18.4553C11.0051 16.9144 10.5388 15.4147 10.4006 14.6759L13.5768 11.5837C13.8176 11.35 13.958 11.0319 13.9684 10.6966C13.9788 10.3612 13.8583 10.035 13.6324 9.78696L8.85966 4.53762C8.63368 4.28879 8.31959 4.13786 7.98411 4.11687C7.64863 4.09589 7.31818 4.20651 7.06295 4.42525L4.26004 6.82904C4.03672 7.05316 3.90343 7.35145 3.88545 7.66733C3.86608 7.99025 3.49666 15.6395 9.428 21.5734C14.6024 26.7465 21.084 27.125 22.8691 27.125C23.13 27.125 23.2902 27.1172 23.3328 27.1147C23.6486 27.097 23.9467 26.9631 24.1698 26.7388L26.5723 23.9346C26.7919 23.6802 26.9033 23.35 26.8828 23.0145C26.8623 22.6791 26.7115 22.3649 26.4625 22.1392Z" fill="#1C86E4"/>
</svg>
