<svg width="31" height="31" viewBox="0 0 31 31" fill="none" xmlns="http://www.w3.org/2000/svg">
<path d="M26.4624 22.1391L21.2118 17.3651C20.9636 17.1395 20.6374 17.0192 20.3022 17.0295C19.9669 17.0399 19.6488 17.1801 19.415 17.4206L16.3241 20.5994C15.5801 20.4573 14.0843 19.991 12.5447 18.4552C11.005 16.9143 10.5387 15.4147 10.4005 14.6758L13.5767 11.5836C13.8175 11.3499 13.9579 11.0318 13.9683 10.6965C13.9787 10.3611 13.8581 10.0349 13.6323 9.78686L8.85955 4.53753C8.63356 4.2887 8.31947 4.13776 7.98399 4.11678C7.64851 4.0958 7.31807 4.20642 7.06284 4.42515L4.25992 6.82894C4.03661 7.05307 3.90332 7.35136 3.88534 7.66723C3.86596 7.99015 3.49655 15.6394 9.42788 21.5733C14.6023 26.7464 21.0839 27.1249 22.869 27.1249C23.1299 27.1249 23.29 27.1172 23.3327 27.1146C23.6485 27.0969 23.9466 26.963 24.1697 26.7387L26.5722 23.9345C26.7918 23.6801 26.9032 23.3499 26.8827 23.0144C26.8622 22.679 26.7113 22.3648 26.4624 22.1391Z" fill="#EF1D01"/>
</svg>
