<svg height="512" viewBox="0 0 512 512" width="512" xmlns="http://www.w3.org/2000/svg"><g id="Flat"><rect fill="#43a047" height="464" rx="96" width="464" x="24" y="24"/><path d="m459.882 52.118-11.34 11.34a79.751 79.751 0 0 1 23.458 56.542v272a80.091 80.091 0 0 1 -80 80h-272a79.751 79.751 0 0 1 -56.542-23.458l-11.34 11.34a95.7 95.7 0 0 0 67.882 28.118h272a96 96 0 0 0 96-96v-272a95.7 95.7 0 0 0 -28.118-67.882z" fill="#388e3c"/><path d="m40 392v-272a80.091 80.091 0 0 1 80-80h272a79.751 79.751 0 0 1 56.542 23.458l11.34-11.34a95.7 95.7 0 0 0 -67.882-28.118h-272a96 96 0 0 0 -96 96v272a95.7 95.7 0 0 0 28.118 67.882l11.34-11.34a79.751 79.751 0 0 1 -23.458-56.542z" fill="#66bb6a"/><path d="m330.343 130.343-64 64 11.314 11.314 50.343-50.344v68.687a72.081 72.081 0 0 1 -72 72 87.958 87.958 0 0 0 -72 37.462v-226.149l50.343 50.344 11.314-11.314-64-64a8 8 0 0 0 -11.314 0l-64 64 11.314 11.314 50.343-50.344v324.687h16v-48a72.081 72.081 0 0 1 72-72 88.1 88.1 0 0 0 88-88v-68.687l50.343 50.344 11.314-11.314-64-64a8 8 0 0 0 -11.314 0z" fill="#f1f1f1"/></g></svg>