<svg width="46" height="46" viewBox="0 0 46 46" fill="none" xmlns="http://www.w3.org/2000/svg">
<path d="M19.4925 36.4165C19.7789 36.4175 20.0618 36.3543 20.3205 36.2316C20.5792 36.1089 20.8071 35.9297 20.9875 35.7074L30.245 24.2074C30.5269 23.8644 30.681 23.4342 30.681 22.9903C30.681 22.5463 30.5269 22.1162 30.245 21.7732L20.6617 10.2732C20.3363 9.8818 19.8688 9.63565 19.362 9.58892C18.8552 9.54219 18.3506 9.69871 17.9592 10.024C17.5678 10.3494 17.3216 10.8169 17.2749 11.3237C17.2282 11.8305 17.3847 12.3351 17.71 12.7265L26.2775 22.9999L17.9975 33.2732C17.7631 33.5545 17.6143 33.8971 17.5685 34.2604C17.5227 34.6237 17.582 34.9925 17.7392 35.3232C17.8965 35.6539 18.1452 35.9326 18.4559 36.1264C18.7667 36.3201 19.1264 36.4208 19.4925 36.4165Z" fill="black"/>
</svg>
