<svg width="32" height="23" viewBox="0 0 32 23" fill="none" xmlns="http://www.w3.org/2000/svg">
<g clip-path="url(#clip0)">
<path d="M9.14863 22.1972L9.14724 22.193L8.31035 20.7436L1.67379 9.24884H0L7.47345 22.1944L7.47067 22.1972H7.47485H9.14445H9.14863Z" fill="#262E3A"/>
<path d="M15.8423 22.1972L15.8409 22.193L15.004 20.7436L14.1671 19.2942L13.3302 17.8448L12.4947 16.3954L11.6564 14.946L8.36746 9.24884H6.69507L10.8196 16.3954L11.6564 17.8448L12.4947 19.2942L13.3302 20.7436L14.1671 22.193L14.1657 22.1972H14.1685H15.8395H15.8423Z" fill="#262E3A"/>
<path d="M18.3516 20.7436L17.5147 19.2942L16.6778 17.8448L15.8409 16.3954L15.004 14.946L14.1671 13.4966L13.3302 12.0472L11.715 9.24884H10.0413L12.4934 13.4966L14.1671 16.3954L15.004 17.8448L15.8409 19.2942L16.6778 20.7436L17.5147 22.193L17.5133 22.1972H17.5161H19.1871H19.1899L19.1885 22.1944L18.3516 20.7436Z" fill="#262E3A"/>
<path d="M21.9586 0H20.2849L14.1755 10.5825L15.0138 12.0319L21.9586 0Z" fill="#FF1200"/>
<path d="M10.8225 22.1972H12.4921H12.4963L12.4949 22.193L11.6566 20.7436L10.8211 19.2942L9.98422 17.8448L5.02144 9.24884H3.34766L9.14732 19.2942L9.98422 20.7436L10.8211 22.193L10.8183 22.1972H10.8225Z" fill="#262E3A"/>
<path d="M16.6863 14.9307L25.3063 0H23.6325L15.8494 13.4813L15.8591 13.4966L16.6863 14.9307Z" fill="#FF1200"/>
<path d="M18.3601 17.8309L28.6525 0H26.9801L17.5232 16.3801L17.5316 16.3954L18.3601 17.8309Z" fill="#FF1200"/>
<path d="M31.9998 0H30.3261L19.1968 19.2789L19.2051 19.2942L20.0337 20.7297L31.9998 0Z" fill="#FF1200"/>
</g>
<defs>
<clipPath id="clip0">
<rect width="32" height="22.4" fill="white"/>
</clipPath>
</defs>
</svg>
