<svg width="316" height="100" viewBox="0 0 316 100" fill="none" xmlns="http://www.w3.org/2000/svg">
<g clip-path="url(#clip0)">
<path d="M29.1613 70.267L29.1568 70.2538L26.4892 65.6656L5.33519 29.2778H0L23.8216 70.2582L23.8127 70.267H23.8261H29.1479H29.1613Z" fill="white"/>
<path d="M50.4976 70.267L50.4932 70.2538L47.8256 65.6656L45.158 61.0773L42.4904 56.4891L39.8272 51.9009L37.1552 47.3127L26.6715 29.2778H21.3408L34.4876 51.9009L37.1552 56.4891L39.8272 61.0773L42.4904 65.6656L45.158 70.2538L45.1535 70.267H45.1624H50.4887H50.4976Z" fill="white"/>
<path d="M58.4959 65.6656L55.8283 61.0773L53.1607 56.4891L50.4932 51.9009L47.8256 47.3127L45.158 42.7245L42.4904 38.1363L37.3419 29.2778H32.0067L39.8228 42.7245L45.158 51.9009L47.8256 56.4891L50.4932 61.0773L53.1607 65.6656L55.8283 70.2538L55.8239 70.267H55.8328H61.1591H61.168L61.1635 70.2582L58.4959 65.6656Z" fill="white"/>
<path d="M69.9933 0H64.6581L45.1846 33.4997L47.8567 38.0879L69.9933 0Z" fill="#FF1200"/>
<path d="M34.4965 70.267H39.8183H39.8316L39.8272 70.2538L37.1552 65.6656L34.492 61.0773L31.8244 56.4891L16.0056 29.2778H10.6704L29.1568 61.0773L31.8244 65.6656L34.492 70.2538L34.4831 70.267H34.4965Z" fill="white"/>
<path d="M53.1874 47.2643L80.6637 0H75.3285L50.5198 42.6761L50.551 42.7247L53.1874 47.2643Z" fill="#FF1200"/>
<path d="M58.5226 56.4451L91.3296 0H85.9989L55.855 51.8525L55.8817 51.9011L58.5226 56.4451Z" fill="#FF1200"/>
<path d="M102 0H96.6648L61.1902 61.0289L61.2169 61.0775L63.8578 65.6216L102 0Z" fill="#FF1200"/>
</g>
<path d="M114.363 38.0391C113.543 38.0391 112.828 37.9531 112.219 37.7812V34.7578C112.844 34.9141 113.414 34.9922 113.93 34.9922C114.727 34.9922 115.297 34.7422 115.641 34.2422C115.984 33.75 116.156 32.9766 116.156 31.9219V15.8672H119.789V31.8984C119.789 33.8984 119.332 35.4219 118.418 36.4688C117.504 37.5156 116.152 38.0391 114.363 38.0391ZM134.689 33H124.822V15.8672H134.689V18.8438H128.454V22.6055H134.255V25.582H128.454V30H134.689V33ZM145.604 33H141.971V18.8906H137.319V15.8672H150.256V18.8906H145.604V33ZM160.222 33H156.59V18.8906H151.937V15.8672H164.875V18.8906H160.222V33ZM171.864 23.4727H173.036C174.185 23.4727 175.032 23.2812 175.579 22.8984C176.126 22.5156 176.4 21.9141 176.4 21.0938C176.4 20.2812 176.118 19.7031 175.556 19.3594C175.001 19.0156 174.138 18.8438 172.966 18.8438H171.864V23.4727ZM171.864 26.4258V33H168.232V15.8672H173.224C175.552 15.8672 177.275 16.293 178.392 17.1445C179.509 17.9883 180.068 19.2734 180.068 21C180.068 22.0078 179.79 22.9062 179.235 23.6953C178.681 24.4766 177.896 25.0898 176.88 25.5352C179.458 29.3867 181.138 31.875 181.919 33H177.888L173.798 26.4258H171.864ZM195.284 33L194.041 28.9219H187.795L186.553 33H182.639L188.686 15.7969H193.127L199.198 33H195.284ZM193.174 25.875C192.026 22.1797 191.377 20.0898 191.229 19.6055C191.088 19.1211 190.987 18.7383 190.924 18.457C190.666 19.457 189.928 21.9297 188.709 25.875H193.174ZM209.363 18.6445C207.996 18.6445 206.937 19.1602 206.187 20.1914C205.437 21.2148 205.062 22.6445 205.062 24.4805C205.062 28.3008 206.496 30.2109 209.363 30.2109C210.566 30.2109 212.023 29.9102 213.734 29.3086V32.3555C212.328 32.9414 210.757 33.2344 209.023 33.2344C206.531 33.2344 204.625 32.4805 203.304 30.9727C201.984 29.457 201.324 27.2852 201.324 24.457C201.324 22.6758 201.648 21.1172 202.297 19.7812C202.945 18.4375 203.875 17.4102 205.086 16.6992C206.304 15.9805 207.73 15.6211 209.363 15.6211C211.027 15.6211 212.699 16.0234 214.379 16.8281L213.207 19.7812C212.566 19.4766 211.922 19.2109 211.273 18.9844C210.625 18.7578 209.988 18.6445 209.363 18.6445ZM217.325 31.3242C217.325 30.668 217.501 30.1719 217.853 29.8359C218.204 29.5 218.716 29.332 219.388 29.332C220.036 29.332 220.536 29.5039 220.888 29.8477C221.247 30.1914 221.427 30.6836 221.427 31.3242C221.427 31.9414 221.247 32.4297 220.888 32.7891C220.528 33.1406 220.028 33.3164 219.388 33.3164C218.731 33.3164 218.224 33.1445 217.864 32.8008C217.505 32.4492 217.325 31.957 217.325 31.3242ZM229.307 23.4727H230.479C231.627 23.4727 232.475 23.2812 233.022 22.8984C233.569 22.5156 233.842 21.9141 233.842 21.0938C233.842 20.2812 233.561 19.7031 232.998 19.3594C232.444 19.0156 231.58 18.8438 230.408 18.8438H229.307V23.4727ZM229.307 26.4258V33H225.674V15.8672H230.666C232.994 15.8672 234.717 16.293 235.834 17.1445C236.951 17.9883 237.51 19.2734 237.51 21C237.51 22.0078 237.233 22.9062 236.678 23.6953C236.123 24.4766 235.338 25.0898 234.323 25.5352C236.901 29.3867 238.58 31.875 239.362 33H235.33L231.24 26.4258H229.307ZM256.183 15.8672V26.9531C256.183 28.2188 255.898 29.3281 255.328 30.2812C254.765 31.2344 253.949 31.9648 252.878 32.4727C251.808 32.9805 250.543 33.2344 249.082 33.2344C246.878 33.2344 245.168 32.6719 243.949 31.5469C242.73 30.4141 242.121 28.8672 242.121 26.9062V15.8672H245.742V26.3555C245.742 27.6758 246.007 28.6445 246.539 29.2617C247.07 29.8789 247.949 30.1875 249.175 30.1875C250.363 30.1875 251.222 29.8789 251.753 29.2617C252.293 28.6367 252.562 27.6602 252.562 26.332V15.8672H256.183Z" fill="white"/>
<path d="M116.929 54H116.307V47.6841H113.863C113.736 49.3556 113.579 50.6315 113.393 51.5117C113.211 52.3877 112.974 53.033 112.682 53.4478C112.394 53.8582 112.02 54.0635 111.559 54.0635C111.394 54.0635 111.25 54.0465 111.127 54.0127V53.4414C111.207 53.4668 111.322 53.4795 111.47 53.4795C111.948 53.4795 112.333 52.9759 112.625 51.9688C112.921 50.9574 113.146 49.3345 113.298 47.1001H116.929V54ZM122.026 54.127C121.023 54.127 120.24 53.818 119.677 53.2002C119.119 52.5824 118.839 51.717 118.839 50.604C118.839 49.5037 119.11 48.6235 119.652 47.9634C120.194 47.299 120.924 46.9668 121.842 46.9668C122.654 46.9668 123.295 47.2503 123.765 47.8174C124.235 48.3844 124.47 49.1546 124.47 50.1279V50.6357H119.5C119.508 51.5837 119.728 52.3073 120.16 52.8066C120.596 53.306 121.218 53.5557 122.026 53.5557C122.419 53.5557 122.764 53.5282 123.061 53.4731C123.361 53.4181 123.74 53.2996 124.197 53.1177V53.689C123.807 53.8582 123.448 53.9725 123.118 54.0317C122.788 54.0952 122.424 54.127 122.026 54.127ZM121.842 47.5254C121.177 47.5254 120.644 47.7454 120.242 48.1855C119.84 48.6214 119.605 49.252 119.538 50.0771H123.803C123.803 49.2773 123.63 48.6532 123.283 48.2046C122.936 47.7518 122.455 47.5254 121.842 47.5254ZM127.002 47.1001V50.1279H131.382V47.1001H132.004V54H131.382V50.6738H127.002V54H126.374V47.1001H127.002ZM138.701 47.646H136.403V54H135.781V47.646H133.426V47.1001H138.701V47.646ZM145.83 50.5405C145.83 51.6662 145.557 52.5464 145.011 53.1812C144.465 53.8117 143.712 54.127 142.751 54.127C142.146 54.127 141.613 53.981 141.151 53.689C140.69 53.397 140.337 52.978 140.091 52.4321C139.846 51.8862 139.723 51.2557 139.723 50.5405C139.723 49.4149 139.996 48.5389 140.542 47.9126C141.088 47.2821 141.837 46.9668 142.789 46.9668C143.737 46.9668 144.48 47.2863 145.017 47.9253C145.559 48.5601 145.83 49.4318 145.83 50.5405ZM140.383 50.5405C140.383 51.4884 140.591 52.229 141.005 52.7622C141.424 53.2912 142.015 53.5557 142.776 53.5557C143.538 53.5557 144.126 53.2912 144.541 52.7622C144.96 52.229 145.169 51.4884 145.169 50.5405C145.169 49.5884 144.958 48.8499 144.535 48.3252C144.116 47.8005 143.525 47.5381 142.764 47.5381C142.002 47.5381 141.414 47.8005 140.999 48.3252C140.589 48.8457 140.383 49.5841 140.383 50.5405ZM148.248 47.1001V49.4106C148.248 49.9946 148.39 50.4157 148.673 50.6738C148.957 50.932 149.393 51.061 149.981 51.061C150.396 51.061 150.791 50.987 151.168 50.8389C151.545 50.6908 151.936 50.4538 152.342 50.1279V47.1001H152.971V54H152.342V50.7246C151.919 51.0505 151.502 51.2832 151.092 51.4229C150.686 51.5625 150.245 51.6323 149.771 51.6323C149.065 51.6323 148.529 51.4482 148.166 51.0801C147.806 50.7119 147.626 50.1808 147.626 49.4868V47.1001H148.248ZM155.91 47.1001V50.1279H160.29V47.1001H160.912V54H160.29V50.6738H155.91V54H155.281V47.1001H155.91ZM163.857 50.0073H166.053C167.674 50.0073 168.484 50.6442 168.484 51.918C168.484 52.5739 168.258 53.0859 167.805 53.4541C167.352 53.818 166.703 54 165.856 54H163.229V47.1001H163.857V50.0073ZM163.857 50.604V53.4033H165.958C166.555 53.4033 167.014 53.2785 167.335 53.0288C167.657 52.7791 167.818 52.4046 167.818 51.9053C167.818 51.4482 167.676 51.1182 167.393 50.915C167.109 50.7077 166.618 50.604 165.92 50.604H163.857ZM170.312 54H169.69V47.1001H170.312V54ZM175.422 54.127C174.419 54.127 173.637 53.818 173.074 53.2002C172.515 52.5824 172.236 51.717 172.236 50.604C172.236 49.5037 172.507 48.6235 173.048 47.9634C173.59 47.299 174.32 46.9668 175.238 46.9668C176.051 46.9668 176.692 47.2503 177.162 47.8174C177.631 48.3844 177.866 49.1546 177.866 50.1279V50.6357H172.896C172.904 51.5837 173.125 52.3073 173.556 52.8066C173.992 53.306 174.614 53.5557 175.422 53.5557C175.816 53.5557 176.161 53.5282 176.457 53.4731C176.757 53.4181 177.136 53.2996 177.593 53.1177V53.689C177.204 53.8582 176.844 53.9725 176.514 54.0317C176.184 54.0952 175.82 54.127 175.422 54.127ZM175.238 47.5254C174.574 47.5254 174.041 47.7454 173.639 48.1855C173.237 48.6214 173.002 49.252 172.934 50.0771H177.2C177.2 49.2773 177.026 48.6532 176.679 48.2046C176.332 47.7518 175.852 47.5254 175.238 47.5254ZM188.854 50.5405C188.854 51.6662 188.581 52.5464 188.035 53.1812C187.489 53.8117 186.736 54.127 185.775 54.127C185.17 54.127 184.637 53.981 184.176 53.689C183.715 53.397 183.361 52.978 183.116 52.4321C182.87 51.8862 182.748 51.2557 182.748 50.5405C182.748 49.4149 183.021 48.5389 183.566 47.9126C184.112 47.2821 184.861 46.9668 185.813 46.9668C186.761 46.9668 187.504 47.2863 188.042 47.9253C188.583 48.5601 188.854 49.4318 188.854 50.5405ZM183.408 50.5405C183.408 51.4884 183.615 52.229 184.03 52.7622C184.449 53.2912 185.039 53.5557 185.801 53.5557C186.562 53.5557 187.151 53.2912 187.565 52.7622C187.984 52.229 188.194 51.4884 188.194 50.5405C188.194 49.5884 187.982 48.8499 187.559 48.3252C187.14 47.8005 186.55 47.5381 185.788 47.5381C185.026 47.5381 184.438 47.8005 184.023 48.3252C183.613 48.8457 183.408 49.5841 183.408 50.5405ZM194.821 47.646H191.393V54H190.765V47.1001H194.821V47.646ZM199.188 54.127C198.126 54.127 197.351 53.7292 196.865 52.9336H196.82L196.839 53.4668C196.856 53.7799 196.865 54.1227 196.865 54.4951V57.123H196.236V47.1001H196.77L196.89 48.084H196.928C197.402 47.3392 198.16 46.9668 199.201 46.9668C200.132 46.9668 200.84 47.2736 201.327 47.8872C201.818 48.4966 202.063 49.3853 202.063 50.5532C202.063 51.6873 201.805 52.5675 201.289 53.1938C200.777 53.8159 200.077 54.127 199.188 54.127ZM199.175 53.5684C199.882 53.5684 200.428 53.306 200.813 52.7812C201.202 52.2565 201.397 51.5223 201.397 50.5786C201.397 48.5516 200.665 47.5381 199.201 47.5381C198.397 47.5381 197.806 47.7603 197.43 48.2046C197.053 48.6447 196.865 49.3641 196.865 50.3628V50.5659C196.865 51.645 197.045 52.4152 197.404 52.8765C197.768 53.3377 198.359 53.5684 199.175 53.5684ZM208.17 54L208.011 52.9082H207.96C207.613 53.3525 207.256 53.6678 206.888 53.854C206.524 54.036 206.092 54.127 205.593 54.127C204.916 54.127 204.389 53.9535 204.012 53.6064C203.636 53.2594 203.447 52.7791 203.447 52.1655C203.447 51.4927 203.727 50.9701 204.285 50.5977C204.848 50.2253 205.66 50.0285 206.723 50.0073L208.037 49.9692V49.5122C208.037 48.8563 207.903 48.3612 207.637 48.0269C207.37 47.6925 206.941 47.5254 206.348 47.5254C205.709 47.5254 205.047 47.7031 204.361 48.0586L204.126 47.5127C204.884 47.1572 205.633 46.9795 206.374 46.9795C207.131 46.9795 207.696 47.1763 208.068 47.5698C208.445 47.9634 208.633 48.577 208.633 49.4106V54H208.17ZM205.631 53.5557C206.367 53.5557 206.947 53.3462 207.37 52.9272C207.798 52.5041 208.011 51.918 208.011 51.1689V50.4897L206.805 50.5405C205.836 50.5871 205.144 50.7394 204.729 50.9976C204.319 51.2515 204.114 51.6493 204.114 52.1909C204.114 52.6226 204.245 52.959 204.507 53.2002C204.774 53.4372 205.148 53.5557 205.631 53.5557ZM213.724 47.1001H214.359V50.4517L217.323 47.1001H218.091L215.102 50.4517L218.326 54H217.52L214.359 50.5024V54H213.724V50.5024L210.563 54H209.757L212.969 50.4771L209.992 47.1001H210.76L213.724 50.4517V47.1001ZM225.15 56.3423H224.528V54H219.247V56.3423H218.625V53.4033H219.082C219.657 52.5951 220.101 51.6577 220.415 50.5913C220.728 49.5249 220.893 48.3612 220.91 47.1001H224.229V53.4033H225.15V56.3423ZM223.601 53.4033V47.6841H221.456C221.354 49.9735 220.8 51.8799 219.792 53.4033H223.601ZM229.403 54.127C228.4 54.127 227.617 53.818 227.054 53.2002C226.496 52.5824 226.216 51.717 226.216 50.604C226.216 49.5037 226.487 48.6235 227.029 47.9634C227.57 47.299 228.3 46.9668 229.219 46.9668C230.031 46.9668 230.672 47.2503 231.142 47.8174C231.612 48.3844 231.847 49.1546 231.847 50.1279V50.6357H226.876C226.885 51.5837 227.105 52.3073 227.537 52.8066C227.972 53.306 228.595 53.5557 229.403 53.5557C229.796 53.5557 230.141 53.5282 230.438 53.4731C230.738 53.4181 231.117 53.2996 231.574 53.1177V53.689C231.184 53.8582 230.825 53.9725 230.495 54.0317C230.165 54.0952 229.801 54.127 229.403 54.127ZM229.219 47.5254C228.554 47.5254 228.021 47.7454 227.619 48.1855C227.217 48.6214 226.982 49.252 226.915 50.0771H231.18C231.18 49.2773 231.007 48.6532 230.66 48.2046C230.313 47.7518 229.832 47.5254 229.219 47.5254ZM234.379 47.1001V50.1279H238.759V47.1001H239.381V54H238.759V50.6738H234.379V54H233.751V47.1001H234.379ZM242.295 47.1001V52.0894L242.257 53.3906L246.351 47.1001H247.189V54H246.586V49.0425L246.611 47.7095L242.517 54H241.698V47.1001H242.295ZM249.404 54H248.611L250.693 51.0229C250.058 50.9045 249.599 50.6844 249.315 50.3628C249.036 50.0412 248.896 49.6286 248.896 49.125C248.896 48.4987 249.106 48.0057 249.525 47.646C249.948 47.2821 250.515 47.1001 251.226 47.1001H254.07V54H253.448V51.0991H251.34L249.404 54ZM249.557 49.0996C249.557 49.5736 249.709 49.9269 250.014 50.1597C250.323 50.3882 250.786 50.5024 251.404 50.5024H253.448V47.6968H251.213C250.689 47.6968 250.28 47.8174 249.988 48.0586C249.701 48.2956 249.557 48.6426 249.557 49.0996Z" fill="white"/>
<defs>
<clipPath id="clip0">
<rect width="102" height="100" fill="white"/>
</clipPath>
</defs>
</svg>
