<svg width="30" height="30" viewBox="0 0 30 30" fill="none" xmlns="http://www.w3.org/2000/svg">
<path d="M15 0C8.74805 0 3.75 4.99805 3.75 11.25C3.75 13.4121 4.39453 15.082 5.51367 16.7754L13.8164 29.373C14.0684 29.7539 14.502 30 15 30C15.498 30 15.9375 29.748 16.1836 29.373L24.4863 16.7754C25.6055 15.082 26.25 13.4121 26.25 11.25C26.25 4.99805 21.252 0 15 0ZM15 17.4961C11.5488 17.4961 8.74805 14.6953 8.74805 11.2383C8.74805 7.78125 11.5488 4.98047 15 4.98047C18.4512 4.98047 21.252 7.78125 21.252 11.2383C21.252 14.6953 18.4512 17.4961 15 17.4961Z" fill="#1C86E4"/>
</svg>
