<svg width="17" height="17" viewBox="0 0 17 17" fill="none" xmlns="http://www.w3.org/2000/svg">
<path d="M14.1667 2.83334H2.83335C2.05419 2.83334 1.41669 3.47084 1.41669 4.25001V12.75C1.41669 13.5292 2.05419 14.1667 2.83335 14.1667H14.1667C14.9459 14.1667 15.5834 13.5292 15.5834 12.75V4.25001C15.5834 3.47084 14.9459 2.83334 14.1667 2.83334ZM13.8834 5.84376L9.25085 8.74084C8.79044 9.03126 8.2096 9.03126 7.74919 8.74084L3.11669 5.84376C3.04566 5.80389 2.98346 5.75002 2.93386 5.68542C2.88425 5.62081 2.84827 5.54681 2.82809 5.4679C2.80792 5.38898 2.80396 5.3068 2.81646 5.22631C2.82897 5.14582 2.85768 5.06871 2.90084 4.99964C2.94401 4.93057 3.00075 4.87097 3.06762 4.82447C3.13449 4.77796 3.2101 4.7455 3.28987 4.72905C3.36965 4.71261 3.45193 4.71253 3.53174 4.72881C3.61155 4.74509 3.68722 4.77739 3.75419 4.82376L8.50002 7.79168L13.2459 4.82376C13.3128 4.77739 13.3885 4.74509 13.4683 4.72881C13.5481 4.71253 13.6304 4.71261 13.7102 4.72905C13.7899 4.7455 13.8656 4.77796 13.9324 4.82447C13.9993 4.87097 14.056 4.93057 14.0992 4.99964C14.1424 5.06871 14.1711 5.14582 14.1836 5.22631C14.1961 5.3068 14.1921 5.38898 14.1719 5.4679C14.1518 5.54681 14.1158 5.62081 14.0662 5.68542C14.0166 5.75002 13.9544 5.80389 13.8834 5.84376Z" fill="#EF1D01"/>
</svg>
