<svg width="26" height="26" viewBox="0 0 26 26" fill="none" xmlns="http://www.w3.org/2000/svg">
<path d="M20.3574 18.5983C16.9484 17.3564 15.8586 16.3081 15.8586 14.0635C15.8586 12.7165 16.9756 11.8435 17.3563 10.6891C17.7371 9.53459 17.9574 8.16777 18.1405 7.17351C18.3236 6.17925 18.3963 5.79468 18.4959 4.73531C18.6176 3.41319 17.7326 0 13 0C8.26885 0 7.38094 3.41319 7.50542 4.73531C7.605 5.79468 7.67815 6.17929 7.86084 7.17351C8.04356 8.16775 8.26167 9.5345 8.64221 10.6891C9.02271 11.8436 10.1413 12.7165 10.1413 14.0635C10.1413 16.3081 9.05153 17.3564 5.6425 18.5983C2.22107 19.843 0 21.0704 0 21.9375V26H26V21.9375C26 21.0718 23.7776 19.8444 20.3574 18.5983Z" fill="#EF1D01"/>
</svg>
